<svg width="92" height="30" viewBox="0 0 92 30" fill="none" xmlns="http://www.w3.org/2000/svg">
<path d="M30 15L7.5 27.9904L7.5 2.00962L30 15Z" fill="#7B65EF"/>
<path d="M49.8 9.152C51.576 9.152 53.128 9.504 54.456 10.208C55.784 10.912 56.808 11.904 57.528 13.184C58.264 14.448 58.632 15.912 58.632 17.576C58.632 19.224 58.264 20.688 57.528 21.968C56.808 23.248 55.776 24.24 54.432 24.944C53.104 25.648 51.56 26 49.8 26H43.488V9.152H49.8ZM49.536 22.448C51.088 22.448 52.296 22.024 53.16 21.176C54.024 20.328 54.456 19.128 54.456 17.576C54.456 16.024 54.024 14.816 53.16 13.952C52.296 13.088 51.088 12.656 49.536 12.656H47.592V22.448H49.536ZM73.0455 9.152V12.44H68.5815V26H64.4775V12.44H60.0135V9.152H73.0455ZM87.2252 9.152V12.44H82.7612V26H78.6572V12.44H74.1932V9.152H87.2252Z" fill="#341BB5"/>
</svg>
