<svg width="160" height="42" viewBox="0 0 160 42" fill="none" xmlns="http://www.w3.org/2000/svg">
<path d="M42 21L10.5 39.1865L10.5 2.81347L42 21Z" fill="#7B65EF"/>
<path d="M64.85 13.364C66.182 13.364 67.346 13.628 68.342 14.156C69.338 14.684 70.106 15.428 70.646 16.388C71.198 17.336 71.474 18.434 71.474 19.682C71.474 20.918 71.198 22.016 70.646 22.976C70.106 23.936 69.332 24.68 68.324 25.208C67.328 25.736 66.17 26 64.85 26H60.116V13.364H64.85ZM64.652 23.336C65.816 23.336 66.722 23.018 67.37 22.382C68.018 21.746 68.342 20.846 68.342 19.682C68.342 18.518 68.018 17.612 67.37 16.964C66.722 16.316 65.816 15.992 64.652 15.992H63.194V23.336H64.652ZM72.5821 20.96C72.5821 19.928 72.7741 19.022 73.1581 18.242C73.5541 17.462 74.0881 16.862 74.7601 16.442C75.4321 16.022 76.1821 15.812 77.0101 15.812C77.7181 15.812 78.3361 15.956 78.8641 16.244C79.4041 16.532 79.8181 16.91 80.1061 17.378V15.956H83.1841V26H80.1061V24.578C79.8061 25.046 79.3861 25.424 78.8461 25.712C78.3181 26 77.7001 26.144 76.9921 26.144C76.1761 26.144 75.4321 25.934 74.7601 25.514C74.0881 25.082 73.5541 24.476 73.1581 23.696C72.7741 22.904 72.5821 21.992 72.5821 20.96ZM80.1061 20.978C80.1061 20.21 79.8901 19.604 79.4581 19.16C79.0381 18.716 78.5221 18.494 77.9101 18.494C77.2981 18.494 76.7761 18.716 76.3441 19.16C75.9241 19.592 75.7141 20.192 75.7141 20.96C75.7141 21.728 75.9241 22.34 76.3441 22.796C76.7761 23.24 77.2981 23.462 77.9101 23.462C78.5221 23.462 79.0381 23.24 79.4581 22.796C79.8901 22.352 80.1061 21.746 80.1061 20.978ZM91.0089 23.39V26H89.4429C88.3269 26 87.4569 25.73 86.8329 25.19C86.2089 24.638 85.8969 23.744 85.8969 22.508V18.512H84.6729V15.956H85.8969V13.508H88.9749V15.956H90.9909V18.512H88.9749V22.544C88.9749 22.844 89.0469 23.06 89.1909 23.192C89.3349 23.324 89.5749 23.39 89.9109 23.39H91.0089ZM98.3214 23.39V26H96.7554C95.6394 26 94.7694 25.73 94.1454 25.19C93.5214 24.638 93.2094 23.744 93.2094 22.508V18.512H91.9854V15.956H93.2094V13.508H96.2874V15.956H98.3034V18.512H96.2874V22.544C96.2874 22.844 96.3594 23.06 96.5034 23.192C96.6474 23.324 96.8874 23.39 97.2234 23.39H98.3214ZM109.504 20.816C109.504 21.104 109.486 21.404 109.45 21.716H102.484C102.532 22.34 102.73 22.82 103.078 23.156C103.438 23.48 103.876 23.642 104.392 23.642C105.16 23.642 105.694 23.318 105.994 22.67H109.27C109.102 23.33 108.796 23.924 108.352 24.452C107.92 24.98 107.374 25.394 106.714 25.694C106.054 25.994 105.316 26.144 104.5 26.144C103.516 26.144 102.64 25.934 101.872 25.514C101.104 25.094 100.504 24.494 100.072 23.714C99.6399 22.934 99.4239 22.022 99.4239 20.978C99.4239 19.934 99.6339 19.022 100.054 18.242C100.486 17.462 101.086 16.862 101.854 16.442C102.622 16.022 103.504 15.812 104.5 15.812C105.472 15.812 106.336 16.016 107.092 16.424C107.848 16.832 108.436 17.414 108.856 18.17C109.288 18.926 109.504 19.808 109.504 20.816ZM106.354 20.006C106.354 19.478 106.174 19.058 105.814 18.746C105.454 18.434 105.004 18.278 104.464 18.278C103.948 18.278 103.51 18.428 103.15 18.728C102.802 19.028 102.586 19.454 102.502 20.006H106.354ZM114.206 17.378C114.494 16.91 114.908 16.532 115.448 16.244C115.988 15.956 116.606 15.812 117.302 15.812C118.13 15.812 118.88 16.022 119.552 16.442C120.224 16.862 120.752 17.462 121.136 18.242C121.532 19.022 121.73 19.928 121.73 20.96C121.73 21.992 121.532 22.904 121.136 23.696C120.752 24.476 120.224 25.082 119.552 25.514C118.88 25.934 118.13 26.144 117.302 26.144C116.594 26.144 115.976 26.006 115.448 25.73C114.92 25.442 114.506 25.064 114.206 24.596V26H111.128V12.68H114.206V17.378ZM118.598 20.96C118.598 20.192 118.382 19.592 117.95 19.16C117.53 18.716 117.008 18.494 116.384 18.494C115.772 18.494 115.25 18.716 114.818 19.16C114.398 19.604 114.188 20.21 114.188 20.978C114.188 21.746 114.398 22.352 114.818 22.796C115.25 23.24 115.772 23.462 116.384 23.462C116.996 23.462 117.518 23.24 117.95 22.796C118.382 22.34 118.598 21.728 118.598 20.96ZM122.733 20.96C122.733 19.928 122.925 19.022 123.309 18.242C123.705 17.462 124.239 16.862 124.911 16.442C125.583 16.022 126.333 15.812 127.161 15.812C127.869 15.812 128.487 15.956 129.015 16.244C129.555 16.532 129.969 16.91 130.257 17.378V15.956H133.335V26H130.257V24.578C129.957 25.046 129.537 25.424 128.997 25.712C128.469 26 127.851 26.144 127.143 26.144C126.327 26.144 125.583 25.934 124.911 25.514C124.239 25.082 123.705 24.476 123.309 23.696C122.925 22.904 122.733 21.992 122.733 20.96ZM130.257 20.978C130.257 20.21 130.041 19.604 129.609 19.16C129.189 18.716 128.673 18.494 128.061 18.494C127.449 18.494 126.927 18.716 126.495 19.16C126.075 19.592 125.865 20.192 125.865 20.96C125.865 21.728 126.075 22.34 126.495 22.796C126.927 23.24 127.449 23.462 128.061 23.462C128.673 23.462 129.189 23.24 129.609 22.796C130.041 22.352 130.257 21.746 130.257 20.978ZM145.821 15.956L139.521 30.77H136.209L138.513 25.658L134.427 15.956H137.865L140.187 22.238L142.491 15.956H145.821ZM151.506 26.144C150.522 26.144 149.634 25.934 148.842 25.514C148.062 25.094 147.444 24.494 146.988 23.714C146.544 22.934 146.322 22.022 146.322 20.978C146.322 19.946 146.55 19.04 147.006 18.26C147.462 17.468 148.086 16.862 148.878 16.442C149.67 16.022 150.558 15.812 151.542 15.812C152.526 15.812 153.414 16.022 154.206 16.442C154.998 16.862 155.622 17.468 156.078 18.26C156.534 19.04 156.762 19.946 156.762 20.978C156.762 22.01 156.528 22.922 156.06 23.714C155.604 24.494 154.974 25.094 154.17 25.514C153.378 25.934 152.49 26.144 151.506 26.144ZM151.506 23.48C152.094 23.48 152.592 23.264 153 22.832C153.42 22.4 153.63 21.782 153.63 20.978C153.63 20.174 153.426 19.556 153.018 19.124C152.622 18.692 152.13 18.476 151.542 18.476C150.942 18.476 150.444 18.692 150.048 19.124C149.652 19.544 149.454 20.162 149.454 20.978C149.454 21.782 149.646 22.4 150.03 22.832C150.426 23.264 150.918 23.48 151.506 23.48Z" fill="#341BB5"/>
</svg>
