<svg width="89" height="89" viewBox="0 0 89 89" fill="none" xmlns="http://www.w3.org/2000/svg">
<path fill-rule="evenodd" clip-rule="evenodd" d="M44.5 88.1C56.0634 88.1 67.1533 83.5064 75.3298 75.3299C83.5064 67.1533 88.1 56.0634 88.1 44.5C88.1 32.9366 83.5064 21.8467 75.3298 13.6701C67.1533 5.49356 56.0634 0.900002 44.5 0.900002C32.9366 0.900002 21.8467 5.49356 13.6701 13.6701C5.49355 21.8467 0.899994 32.9366 0.899994 44.5C0.899994 56.0634 5.49355 67.1533 13.6701 75.3299C21.8467 83.5064 32.9366 88.1 44.5 88.1V88.1ZM42.0747 29.0656C41.254 28.518 40.2999 28.2035 39.3144 28.1556C38.3289 28.1077 37.3489 28.3283 36.4789 28.7938C35.6089 29.2593 34.8816 29.9522 34.3746 30.7987C33.8676 31.6451 33.5998 32.6133 33.6 33.6V55.4C33.5998 56.3867 33.8676 57.3549 34.3746 58.2014C34.8816 59.0478 35.6089 59.7407 36.4789 60.2062C37.3489 60.6717 38.3289 60.8923 39.3144 60.8444C40.2999 60.7965 41.254 60.482 42.0747 59.9344L58.4247 49.0344C59.1712 48.5367 59.7832 47.8624 60.2065 47.0714C60.6297 46.2804 60.8512 45.3971 60.8512 44.5C60.8512 43.6029 60.6297 42.7196 60.2065 41.9286C59.7832 41.1376 59.1712 40.4633 58.4247 39.9656L42.0747 29.0656V29.0656Z" fill="#7B65EF"/>
</svg>
